<?xml version="1.0" encoding="utf-8"?>
<!-- Generator: Adobe Illustrator 27.5.0, SVG Export Plug-In . SVG Version: 6.00 Build 0)  -->
<svg version="1.1" xmlns="http://www.w3.org/2000/svg" xmlns:xlink="http://www.w3.org/1999/xlink" x="0px" y="0px"
	 viewBox="0 0 3710 3710" style="enable-background:new 0 0 3710 3710;" xml:space="preserve">
<g id="Background">
	<g>
		<g>
			<rect style="fill:#FFFFFF;" width="3710" height="3710"/>
		</g>
	</g>
</g>
<g id="Illustration">
	<g id="Mobile_expense_management">
		<path style="fill:#F4F7FA;" d="M798.693,2832.371c72.414,74.643,137.209,118.52,186.817,151.644
			c483.824,323.053,1036.887,229.942,1207.881,198.116c275.877-51.346,508.755-87.569,708.839-268.337
			c454.651-410.76,432.538-1267.635,85.129-1798.432c-41.192-62.937-388.075-577.126-942.336-649.579
			c-13.557-1.772-23.671-2.781-32.531-3.719c-85.742-9.079-617.074-56.992-1050.322,305.983
			c-62.017,51.958-161.821,145.677-254.371,288.614C369.392,1579.304,368.32,2388.76,798.693,2832.371z"/>
		<g>
			<g>
				<g>
					<defs>
						<path id="SVGID_1_" d="M1606.045,2892.612c-20.564-9.826-56.64-49.333-61.799-63.509
							c-34.327-94.338-110.071-266.79-71.097-365.5c6.656-16.858,88.722-7.595,104.668-19.839
							c53.756-6.794,72.826-5.817,120.758-37.381c141.507-93.186-9.13-404.847,283.862-400.826
							c214.612,2.945,356.971,123.947,435.217-185.033s498.539-780.849,748.363-465.384
							c143.375,181.047-126.817,376.94-94.826,597.361c30.4,209.457-94.603,332.642-321.375,377.909
							c-226.772,45.266-151.857,161.891-152.439,351.266c-0.701,227.479-328.864,160.094-477.714,116.06
							C1999.797,2762.275,1670.654,2752.851,1606.045,2892.612z"/>
					</defs>
					
						<linearGradient id="SVGID_00000141435013374974624700000010373556159374024118_" gradientUnits="userSpaceOnUse" x1="3120.4519" y1="1789.2135" x2="2140.5735" y2="2365.6116">
						<stop  offset="0" style="stop-color:#FFC444"/>
						<stop  offset="0.9964" style="stop-color:#F36F56"/>
					</linearGradient>
					
						<use xlink:href="#SVGID_1_"  style="overflow:visible;fill:url(#SVGID_00000141435013374974624700000010373556159374024118_);"/>
					<clipPath id="SVGID_00000137820543726669139210000001067403802799464078_">
						<use xlink:href="#SVGID_1_"  style="overflow:visible;"/>
					</clipPath>
					<g style="clip-path:url(#SVGID_00000137820543726669139210000001067403802799464078_);">
						<path style="fill:#FCFDFE;" d="M1508.403,2654.933l-0.393-2.854c189.912-26.038,372.992-80.9,544.157-163.062
							c164.48-78.952,318.218-183.174,456.94-309.77c269.352-245.805,477.8-572.059,602.811-943.493l2.729,0.92
							c-125.164,371.896-333.886,698.568-603.598,944.702c-138.931,126.786-292.902,231.166-457.635,310.24
							C1881.979,2573.907,1698.61,2628.854,1508.403,2654.933z"/>
						<path style="fill:#FCFDFE;" d="M2608.512,2775.466c-163.896-120.57-470.228-223.065-682.863-228.481l0.074-2.881
							c213.134,5.427,520.198,108.175,684.498,229.042L2608.512,2775.466z"/>
						<path style="fill:#FCFDFE;" d="M1668.349,2625.863l-1.168-2.636c101.245-44.857,173.835-138.469,215.751-278.234
							c38.921-129.774,44.732-274.448,45.719-371.98l2.881,0.03c-0.987,97.706-6.814,242.652-45.839,372.777
							C1843.521,2486.429,1770.398,2580.648,1668.349,2625.863z"/>
						<path style="fill:#FCFDFE;" d="M2548.964,2145.617l-1.303-2.572c103.562-52.404,283.885-99.046,554.841-23.688l-0.772,2.777
							C2831.662,2047.018,2652.064,2093.445,2548.964,2145.617z"/>
						<path style="fill:#FCFDFE;" d="M2854.461,1775.954l-2.666-1.095c38.713-94.296,87.62-295.346-19.803-582.378l2.699-1.011
							c36.259,96.882,58.312,197.774,63.778,291.77C2904.738,1591.073,2889.933,1689.557,2854.461,1775.954z"/>
					</g>
				</g>
			</g>
			<g>
				<g>
					<g>
						<defs>
							<path id="SVGID_00000044900584594669367560000011140259032365466271_" d="M1671.14,2561.423
								c-19.706,1.239-63.669-13.438-73.552-21.989c-65.769-56.905-195.829-155.448-207.975-246.582
								c-2.074-15.564,63.932-43.172,70.833-59.164c37.811-27.816,52.653-35.121,75.608-79.225
								c67.77-130.204-177.683-302.494,45.719-423.043c163.638-88.3,322.402-56.789,251.275-323.599
								c-71.127-266.81,47.861-801.16,369.972-667.831c184.861,76.518,63.04,338.723,180.227,492.02
								c111.358,145.672,68.731,291.615-83.772,421.526c-152.503,129.911-46.619,186.559,32.823,330.104
								c95.426,172.427-181.318,259.865-312.527,289.333C1914.111,2296.703,1661.075,2428.413,1671.14,2561.423z"/>
						</defs>
						
							<linearGradient id="SVGID_00000144321008797275341760000014178910480140621222_" gradientUnits="userSpaceOnUse" x1="2377.3552" y1="1337.0052" x2="1677.7164" y2="1748.5568">
							<stop  offset="0" style="stop-color:#FFC444"/>
							<stop  offset="0.9964" style="stop-color:#F36F56"/>
						</linearGradient>
						
							<use xlink:href="#SVGID_00000044900584594669367560000011140259032365466271_"  style="overflow:visible;fill:url(#SVGID_00000144321008797275341760000014178910480140621222_);"/>
						<clipPath id="SVGID_00000156582187166893416920000017465096290360801674_">
							<use xlink:href="#SVGID_00000044900584594669367560000011140259032365466271_"  style="overflow:visible;"/>
						</clipPath>
						<g style="clip-path:url(#SVGID_00000156582187166893416920000017465096290360801674_);">
							<path style="fill:#FFFFFF;" d="M1497.113,2422.915l-1.733-2.303c132.706-99.8,248.086-218.528,342.936-352.884
								c91.146-129.109,163.505-272.806,215.069-427.1c100.12-299.588,120.227-634.357,58.148-968.119l2.834-0.527
								c62.167,334.242,42.025,669.51-58.25,969.56c-51.651,154.56-124.14,298.51-215.448,427.848
								C1745.647,2203.993,1630.058,2322.934,1497.113,2422.915z"/>
							<path style="fill:#FFFFFF;" d="M1764.003,2166.065l-1.34-2.552c164.646-86.363,441.863-138.511,617.961-116.269l-0.363,2.861
								C2204.667,2027.917,1928.206,2079.935,1764.003,2166.065z"/>
							<path style="fill:#FFFFFF;" d="M1597.574,2345.577l-2.303-1.732c58.039-77.116,74.869-180.575,50.023-307.507
								c-18.203-92.995-57.944-196.203-118.119-306.76l2.531-1.377c60.314,110.814,100.156,214.3,118.414,307.583
								C1673.131,2163.552,1656.125,2267.782,1597.574,2345.577z"/>
							<path style="fill:#FFFFFF;" d="M2068.779,1598.225l-2.387-1.612c101.599-150.508,279.52-219.97,410.886-251.738l0.678,2.8
								C2347.085,1379.325,2169.863,1448.483,2068.779,1598.225z"/>
							<path style="fill:#FFFFFF;" d="M2142.71,1190.019c-10.447-87.383-58.27-259.713-261.184-432.064l1.867-2.196
								c68.458,58.147,127.822,125.178,171.674,193.848c50.456,79.014,80.906,159.786,90.504,240.07L2142.71,1190.019z"/>
						</g>
					</g>
				</g>
			</g>
			<g>
				<g>
					<defs>
						<path id="SVGID_00000051344536267536628190000015321755125965355183_" d="M2023,2961.027
							c-100.574-26.315-200.786-54.969-300.553-85.944c-1.824,1.317-10.813-224.601,107.602-329.493
							c233.644-202.734,115.407-420.872,88.55-545.36c-44.873-176.19,8.763-355.7,181.25-339.408
							c191.721,14.331,261.227-297.948,258.341-589.313c-11.287-143.186,139.802-298.735,276.131-323.05
							c139.546-28.207,264.331,74.818,274.71,358.889c26.694,330.53-231.036,499.638-336.402,652.25
							c-103.634,149.793,82.338,300.764-94.37,424.119c-149.373,110.451-330.141,181.752-285.035,346.173
							C2240.238,2692.718,2210.817,2818.351,2023,2961.027z"/>
					</defs>
					
						<linearGradient id="SVGID_00000075876500915108283800000002046121649988945292_" gradientUnits="userSpaceOnUse" x1="2665.1265" y1="802.606" x2="1922.2611" y2="2913.9097">
						<stop  offset="0" style="stop-color:#FF9085"/>
						<stop  offset="1" style="stop-color:#FB6FBB"/>
					</linearGradient>
					
						<use xlink:href="#SVGID_00000051344536267536628190000015321755125965355183_"  style="overflow:visible;fill:url(#SVGID_00000075876500915108283800000002046121649988945292_);"/>
					<clipPath id="SVGID_00000176731119187445146840000017993852181865192322_">
						<use xlink:href="#SVGID_00000051344536267536628190000015321755125965355183_"  style="overflow:visible;"/>
					</clipPath>
					<g style="clip-path:url(#SVGID_00000176731119187445146840000017993852181865192322_);">
						<path style="fill:#FFFFFF;" d="M1884.462,2959.064l-3.41-0.416c0.186-1.978,149.431-458.569,368.097-894.979
							c31.399-71.121,64.872-142.636,97.243-211.796c86.688-185.208,176.329-376.722,230.336-571.317
							c60.375-217.534,69.581-418.445,28.147-614.219l3.364-0.712c41.552,196.325,32.329,397.771-28.197,615.85
							c-54.086,194.87-143.787,386.518-230.536,571.854c-32.364,69.143-65.827,140.641-97.246,211.804
							C2034.181,2500.376,1884.974,2956.442,1884.462,2959.064z"/>
						<path style="fill:#FFFFFF;" d="M2507.983,1493.861l-2.287-2.565c127.817-113.942,285.643-279.018,370.434-367.702
							c66.487-69.541,68.732-71.421,70.941-70.835l-0.9,3.317l0.45-1.659l0.472,1.615c-3.117,1.573-31.961,31.743-68.478,69.937
							C2793.791,1214.689,2635.904,1379.829,2507.983,1493.861z"/>
						<path style="fill:#FFFFFF;" d="M2563.678,1326.881c-7.58-148.052-57.071-251.18-97.253-311.625
							c-44.129-66.381-88.516-98.943-92.925-99.888c0.009,0.002,0.354,0.07,0.784-0.154l-1.588-3.049
							c0.938-0.494,2.021-0.217,4.291,1.081c9.601,5.498,54.442,40.194,98.403,109.503c37.795,59.586,84.386,160.688,91.723,303.958
							L2563.678,1326.881z"/>
						<path style="fill:#FFFFFF;" d="M2117.744,2353.763l-3.351-0.772c0.118-0.505,0.499-1.847,0.886-3.201
							c0.378-1.321,0.76-2.654,0.873-3.145c30.153-132.936,14.421-281.135-46.763-440.48
							c-31.907-83.095-75.068-165.796-128.284-245.806c-3.683-5.537-5.193-7.82-5.587-8.715l3.146-1.387
							c0.291,0.66,2.503,3.985,5.303,8.198c53.357,80.22,96.633,163.147,128.63,246.476
							c61.434,159.993,77.215,308.864,46.907,442.476c-0.119,0.521-0.52,1.931-0.92,3.327
							C2118.219,2352.017,2117.854,2353.287,2117.744,2353.763z"/>
						<path style="fill:#FFFFFF;" d="M2180.598,2213.901l-2.706-2.119c144.744-184.91,404.733-170.205,406.826-169.377l1.1,1.741
							l-1.358,1.551l-0.363-1.654l-0.341,1.645C2581.331,2045.326,2324.331,2030.289,2180.598,2213.901z M2583.725,2042.339
							l0.366,1.674L2583.725,2042.339z"/>
						<path style="fill:#FFFFFF;" d="M1909.939,2884.707l-3.401-0.504c8.656-58.604-1.304-161.22-97.902-317.27
							c-5.159-8.335-5.159-8.335-4.902-9.327l1.664,0.43l1.645-0.432c0.238,0.608,2.221,3.811,4.518,7.519
							C1908.704,2722.058,1918.679,2825.534,1909.939,2884.707z"/>
						<path style="fill:#FFFFFF;" d="M1948.14,2776.747l-3.176-1.313c17.867-43.224,78.472-125.097,283.611-187.8
							c2.851-0.871,4.686-1.429,5.344-1.682l1.229,3.213c-0.688,0.262-2.597,0.85-5.569,1.756
							C2025.792,2653.21,1965.778,2734.083,1948.14,2776.747z"/>
					</g>
				</g>
			</g>
		</g>
		<g>
			<g>
				<g>
					
						<linearGradient id="SVGID_00000065049215502743939960000011520604204404297103_" gradientUnits="userSpaceOnUse" x1="5209.5693" y1="2603.4438" x2="4175.9141" y2="1721.6885" gradientTransform="matrix(1 0 0 1 -2922.792 0)">
						<stop  offset="0" style="stop-color:#444B8C"/>
						<stop  offset="0.9964" style="stop-color:#26264F"/>
					</linearGradient>
					<path style="fill:url(#SVGID_00000065049215502743939960000011520604204404297103_);" d="M2034.693,766.905v2160.078
						c0,32.302-27.597,39.254-58.89,40.277l-1072.574,55.469l-16.249,0.531c-33.342,1.091-60.668-25.362-60.668-58.786V729.412
						c0-33.424,27.326-59.877,60.668-58.786l22.051,0.721l1076.501,83.727C2016.825,756.098,2034.693,734.602,2034.693,766.905z"/>
					
						<linearGradient id="SVGID_00000044866728106114833230000000222715118163323531_" gradientUnits="userSpaceOnUse" x1="-1177.3177" y1="5735.438" x2="2631.7061" y2="5877.1304" gradientTransform="matrix(0 -1 1 0 -4311.8242 1734.3226)">
						<stop  offset="0" style="stop-color:#444B8C"/>
						<stop  offset="0.9964" style="stop-color:#26264F"/>
					</linearGradient>
					<path style="fill:url(#SVGID_00000044866728106114833230000000222715118163323531_);" d="M2068.107,766.905v2160.078
						c0,32.302-25.561,59.568-56.854,60.592l-1090.859,35.687c-33.342,1.091-60.669-25.362-60.669-58.786V729.412
						c0-33.424,27.326-59.877,60.669-58.786l1090.859,35.687C2042.546,707.337,2068.107,734.602,2068.107,766.905z"/>
					<path style="fill:#FFFFFF;" d="M2032.802,885.654v2001.055c0,30.159-23.888,55.584-53.129,56.503l-1025.752,32.222
						c-31.038,0.975-56.472-23.705-56.472-54.846V854.332c0-31.141,25.435-55.879,56.472-54.974l1025.752,29.913
						C2008.913,830.123,2032.802,855.495,2032.802,885.654z"/>
				</g>
				<path style="fill:#DE8BDF;" d="M1494.482,755.699c0,11.382-9.067,20.334-20.257,19.996c-11.198-0.339-20.28-9.851-20.28-21.246
					c0-11.395,9.083-20.347,20.28-19.995C1485.416,734.805,1494.482,744.317,1494.482,755.699z"/>
			</g>
			<g>
				<g>
					<g>
						<g>
							<g style="opacity:0.3;">
								<path style="fill:#D8DEE8;" d="M1557.979,2405.151c-17.692-242.783,115.036-342.993,64.422-562.957
									c-62.564-271.894-303.19-283.547-385.138-550.173c-31.398-102.157-43.803-256.598,46.077-481.448l-338.81-12.885
									c-23.784-0.905-43.103,19.8-43.103,46.248v2123.307c0,26.448,19.319,46.653,43.103,45.133l927.573-59.267
									C1636.107,2747.788,1568.852,2554.377,1557.979,2405.151z"/>
							</g>
						</g>
						<g>
							<path style="fill:#D8DEE8;" d="M1788.334,2469.605l-631.217,25.556c-14.901,0.603-26.996,14.654-26.996,31.382l0,0
								c0,16.728,12.095,29.765,26.996,29.12l631.217-27.331c14.02-0.607,25.372-14.229,25.372-30.426l0,0
								C1813.706,2481.708,1802.354,2469.037,1788.334,2469.605z"/>
							<path style="fill:#D8DEE8;" d="M1788.334,2574.212l-631.217,28.718c-14.901,0.678-26.996,14.789-26.996,31.517l0,0
								c0,16.728,12.095,29.705,26.996,28.985l631.217-30.493c14.02-0.677,25.372-14.356,25.372-30.553l0,0
								C1813.706,2586.188,1802.354,2573.575,1788.334,2574.212z"/>
							<path style="fill:#D8DEE8;" d="M1788.334,2678.82l-631.217,31.879c-14.901,0.752-26.996,14.924-26.996,31.652l0,0
								c0,16.728,12.095,29.644,26.996,28.85l631.217-33.654c14.02-0.748,25.372-14.484,25.372-30.681l0,0
								C1813.706,2690.669,1802.354,2678.112,1788.334,2678.82z"/>
						</g>
						<g>
							<path style="fill:#D8DEE8;" d="M1887.343,966.159l-317.518-10.105c-7.382-0.235-13.37,6.286-13.37,14.566l0,0
								c0,8.28,5.988,15.174,13.37,15.399l317.518,9.663c7.161,0.218,12.963-6.21,12.963-14.358l0,0
								C1900.305,973.177,1894.504,966.387,1887.343,966.159z"/>
							<path style="fill:#D8DEE8;" d="M1887.343,1018.747l-317.518-9.318c-7.382-0.216-13.37,6.319-13.37,14.599l0,0
								c0,8.279,5.988,15.159,13.37,15.365l317.518,8.876c7.161,0.2,12.963-6.243,12.963-14.39l0,0
								C1900.305,1025.731,1894.504,1018.957,1887.343,1018.747z"/>
							<path style="fill:#D8DEE8;" d="M1887.343,1071.333l-317.518-8.531c-7.382-0.198-13.37,6.353-13.37,14.632l0,0
								c0,8.279,5.988,15.144,13.37,15.332l317.518,8.089c7.161,0.182,12.963-6.275,12.963-14.422l0,0
								C1900.305,1078.286,1894.504,1071.526,1887.343,1071.333z"/>
						</g>
					</g>
					<g>
						<g>
							
								<linearGradient id="SVGID_00000161602578596298573230000011279850720049507775_" gradientUnits="userSpaceOnUse" x1="1285.2478" y1="1285.8007" x2="1362.7288" y2="1986.225">
								<stop  offset="0" style="stop-color:#FFC444"/>
								<stop  offset="0.9964" style="stop-color:#F36F56"/>
							</linearGradient>
							<path style="fill:url(#SVGID_00000161602578596298573230000011279850720049507775_);" d="M1338.666,1618.978
								c20.614-43.819,59.195-74.948,104.404-80.751l3.157-216.537c-128.852,3.784-239.844,93.053-289.569,221.009
								L1338.666,1618.978z"/>
							
								<linearGradient id="SVGID_00000088814318321551527050000017726571731213608616_" gradientUnits="userSpaceOnUse" x1="1524.4652" y1="1840.781" x2="1833.558" y2="2465.0879">
								<stop  offset="0.0036" style="stop-color:#E38DDD"/>
								<stop  offset="1" style="stop-color:#9571F6"/>
							</linearGradient>
							<path style="fill:url(#SVGID_00000088814318321551527050000017726571731213608616_);" d="M1591.39,1717.45
								c-11.002,71.943-65.962,127.156-132.487,127.85c-19.666,0.205-38.385-4.378-55.309-12.795l-100.984,186.522
								c46.682,27.855,99.953,43.077,156.292,41.917c167.524-3.45,303.221-150.749,318.515-335.594L1591.39,1717.45z"/>
							
								<linearGradient id="SVGID_00000147914673281436383310000012024138333286489278_" gradientUnits="userSpaceOnUse" x1="1114.5453" y1="1599.7488" x2="1518.6857" y2="2119.3574">
								<stop  offset="0" style="stop-color:#311944"/>
								<stop  offset="1" style="stop-color:#893976"/>
							</linearGradient>
							<path style="fill:url(#SVGID_00000147914673281436383310000012024138333286489278_);" d="M1271.422,1997.79l101.273-186.684
								c-30.512-28.137-50.021-71.119-50.021-119.406c0-11.667,1.148-23.032,3.308-33.965l-182.225-75.994
								c-9.597,34.938-14.771,72.077-14.771,110.573C1128.985,1819.788,1185.539,1931.608,1271.422,1997.79z"/>
						</g>
						<g>
							
								<linearGradient id="SVGID_00000170251832223982540860000004471292767304528816_" gradientUnits="userSpaceOnUse" x1="1911.3429" y1="1129.6492" x2="1587.0259" y2="1581.908">
								<stop  offset="0" style="stop-color:#FF9085"/>
								<stop  offset="1" style="stop-color:#FB6FBB"/>
							</linearGradient>
							<path style="fill:url(#SVGID_00000170251832223982540860000004471292767304528816_);" d="M1479.153,1539.038
								c60.791,10.641,108.035,67.344,113.677,137.623l307.877,13.671c0-0.155,0.002-0.309,0.002-0.463
								c0-268.116-182.186-490.897-416.32-510.686L1479.153,1539.038z"/>
						</g>
					</g>
					<path style="opacity:0.35;fill:#FFFFFF;" d="M1560.372,2405.063c-17.688-242.755,115.01-342.954,64.407-562.893
						c-62.55-271.863-303.121-283.515-385.05-550.11c-30.096-97.931-42.739-243.927,35.512-454.065l-328.177-12.056
						c-9.747-0.358-17.683,8.164-17.683,18.998v2120.581c0,10.833,7.936,19.15,17.683,18.541l899.191-56.288
						C1633.031,2731.763,1570.793,2548.095,1560.372,2405.063z"/>
				</g>
				<g>
					
						<linearGradient id="SVGID_00000147901357878591976050000010515533872456856991_" gradientUnits="userSpaceOnUse" x1="-7227.2324" y1="-3019.145" x2="-7658.8999" y2="-2417.187" gradientTransform="matrix(-1 0 0 -1 -5902 -287)">
						<stop  offset="0" style="stop-color:#FF9085"/>
						<stop  offset="1" style="stop-color:#FB6FBB"/>
					</linearGradient>
					<path style="opacity:0.3;fill:url(#SVGID_00000147901357878591976050000010515533872456856991_);" d="M1462.222,2136.302
						l449.805-10.863c11.709-0.283,21.191,10.52,21.191,24.129v235.318c0,13.608-9.483,25-21.191,25.443l-474.089,17.955
						c-12.264,0.465-22.216-10.466-22.216-24.414v-307.603L1462.222,2136.302z"/>
					<polygon style="opacity:0.67;fill:#FFFFFF;" points="1495.784,2335.516 1856.435,2323.4 1856.435,2351.841 1495.784,2364.45 
											"/>
					<polygon style="opacity:0.67;fill:#FFFFFF;" points="1495.784,2277.647 1856.435,2266.516 1856.435,2294.958 
						1495.784,2306.582 					"/>
					<polygon style="opacity:0.67;fill:#FFFFFF;" points="1495.784,2219.779 1856.435,2209.633 1856.435,2238.075 
						1495.784,2248.713 					"/>
				</g>
			</g>
		</g>
		<g>
			<g>
				
					<linearGradient id="SVGID_00000157280914317473967840000004651367034472859834_" gradientUnits="userSpaceOnUse" x1="-4245.5557" y1="2491.9565" x2="-2700.2429" y2="2491.9565" gradientTransform="matrix(-1 0 0 1 -1056.0424 0)">
					<stop  offset="0" style="stop-color:#311944"/>
					<stop  offset="1" style="stop-color:#893976"/>
				</linearGradient>
				<path style="fill:url(#SVGID_00000157280914317473967840000004651367034472859834_);" d="M3129.665,2419.193l-57.982-2.422
					c-9.801-47.165-24.52-92.85-43.595-136.501l50.935-27.265c25.563-13.691,33.385-45.933,17.464-72.009l-54.222-88.798
					c-15.892-26.03-105.008-41.431-130.495-27.702l2.273,34.163c-31.141-36.458-65.811-69.927-103.398-99.853l30.188-53.316
					c14.085-24.873,4.105-57.672-22.277-73.231l-89.796-52.966c-26.302-15.512-109.693-21.682-123.706,3.158l20,68.199
					c-43.09-17.27-88.023-30.506-134.302-39.146l-2.202-64.644c-0.995-29.197-25.795-53.648-55.375-54.617l-100.65-3.3
					c-29.474-0.966-52.547,21.847-51.555,50.961l2.195,64.462c-45.483,5.455-89.205,15.571-130.724,29.809l-34.047-56.307
					c-15.509-25.651-95.967-42.188-120.816-28.533l-36.844,53.314c-24.772,13.612-32.333,45.395-16.897,70.997l33.127,54.949
					c-34.792,26.95-66.43,57.566-94.371,91.34l-53.785-32.259c-25.664-15.392-113.785-22.318-127.445,2.174l9.724,97.718
					c-13.636,24.45-3.95,56.758,21.646,72.194l51.11,30.809c-15.579,41.523-26.791,85.362-33.142,131.026l-55.841-2.331
					c-28.954-1.21-51.612,21.194-50.63,50.047l3.349,98.337c0.983,28.852,25.236,53.281,54.192,54.571l52.744,2.35
					c8.232,47.485,21.428,93.596,39.071,137.76l-42.949,23.142c-24.619,13.262-32.13,44.829-16.786,70.529l11.688,104.598
					c15.371,25.745,88.504,18.985,113.193,5.766l40.867-21.88c31.021,39.033,66.006,74.986,104.277,107.199l-21.998,38.991
					c-13.735,24.35-3.985,56.873,21.789,72.674l35.386,59.565c25.853,15.843,110.622,3.298,124.428-21.088l21.279-37.586
					c45.534,19.894,93.365,35.217,142.854,45.353l1.51,44.365c0.992,29.114,25.689,53.99,55.184,55.569l100.721,5.393
					c29.6,1.583,52.807-20.794,51.812-49.992l-1.515-44.496c49.318-5.009,96.731-15.434,141.618-30.75l-24.673,52.709
					c15.748,26.125,97.954,24.06,123.274,10.777l86.448-45.352c25.4-13.33,33.171-45.357,17.348-71.527l-25.316-41.865
					c37.104-28.808,70.639-61.813,99.928-98.41l8.352,34.01c26.498,15.973,94.89,1.273,109.053-23.459l48.324-84.372
					c14.189-24.777,4.145-57.79-22.427-73.725l-46.263-27.75c15.23-43.409,25.717-89.259,30.948-136.996l54.77,2.441
					c30.139,1.343,53.773-21.449,52.77-50.915l-3.42-100.429C3185.06,2445.354,3159.799,2420.451,3129.665,2419.193z
					 M2425.856,3013.072c-285.479-13.91-523.396-252.929-532.966-533.954c-9.57-281.025,212.746-500.122,498.119-489.314
					c287.114,10.875,529,250.074,538.674,534.21C2939.359,2808.148,2713.075,3027.067,2425.856,3013.072z"/>
				
					<linearGradient id="SVGID_00000022539573021086698080000003478957494719768480_" gradientUnits="userSpaceOnUse" x1="-4286.5991" y1="3660.3228" x2="-3396.0642" y2="2470.0588" gradientTransform="matrix(-1 0 0 1 -1056.0424 0)">
					<stop  offset="0" style="stop-color:#311944"/>
					<stop  offset="1" style="stop-color:#893976"/>
				</linearGradient>
				<path style="fill:url(#SVGID_00000022539573021086698080000003478957494719768480_);" d="M3062.212,2409.578l-57.983-2.447
					c-9.8-47.659-24.519-93.823-43.595-137.932l50.935-27.552c25.563-13.833,33.385-46.414,17.464-72.764l-54.222-89.729
					c-15.892-26.302-49.443-36.357-74.929-22.484l-53.292,29.014c-31.139-36.84-65.81-70.659-103.398-100.898l30.189-53.876
					c14.084-25.134,4.105-58.276-22.277-73.998l-89.796-53.522c-26.301-15.674-58.972-8.021-72.985,17.08l-30.722,55.025
					c-43.09-17.451-88.023-30.826-134.302-39.557l-2.201-65.322c-0.994-29.503-25.795-54.209-55.373-55.189l-100.652-3.335
					c-29.474-0.976-52.547,22.077-51.555,51.496l2.196,65.136c-45.483,5.513-89.205,15.736-130.723,30.123l-34.048-56.896
					c-15.509-25.922-48.235-35.73-73.084-21.933l-84.575,46.971c-24.773,13.755-32.333,45.871-16.897,71.742l33.126,55.524
					c-34.793,27.235-66.43,58.17-94.372,92.299l-53.785-32.598c-25.664-15.554-57.536-8.089-71.195,16.661l-46.525,84.279
					c-13.637,24.705-3.95,57.353,21.645,72.95l51.11,31.131c-15.579,41.959-26.791,86.256-33.141,132.4l-55.842-2.357
					c-28.953-1.223-51.612,21.417-50.63,50.571l3.349,99.368c0.983,29.155,25.236,53.839,54.194,55.144l52.743,2.375
					c8.231,47.981,21.428,94.576,39.07,139.205l-42.949,23.384c-24.619,13.401-32.129,45.299-16.785,71.268l52.35,88.592
					c15.371,26.016,47.84,36.287,72.531,22.93l40.866-22.11c31.021,39.443,66.007,75.772,104.277,108.323l-21.997,39.401
					c-13.736,24.605-3.986,57.468,21.789,73.436l87.996,54.492c25.853,16.009,58.013,9.03,71.818-15.612l21.279-37.98
					c45.535,20.102,93.366,35.586,142.854,45.828l1.511,44.831c0.992,29.418,25.688,54.556,55.183,56.151l100.722,5.449
					c29.599,1.601,52.806-21.012,51.811-50.514l-1.515-44.963c49.318-5.062,96.731-15.595,141.618-31.073l24.25,40.646
					c15.748,26.398,49.032,36.928,74.353,23.506l86.448-45.828c25.399-13.47,33.171-45.833,17.348-72.277l-25.316-42.303
					c37.104-29.111,70.638-62.46,99.927-99.443l43.774,26.668c26.498,16.14,59.469,8.986,73.632-16.006l48.325-85.256
					c14.189-25.036,4.144-58.397-22.428-74.498l-46.262-28.041c15.23-43.865,25.717-90.194,30.948-138.431l54.771,2.466
					c30.137,1.356,53.772-21.674,52.768-51.448l-3.419-101.482C3117.606,2436.013,3092.347,2410.849,3062.212,2409.578z
					 M2359.02,3031.61c-297.589-14.652-545.601-266.424-555.576-562.442c-9.976-296.017,221.773-526.805,519.252-515.419
					c299.296,11.456,551.441,263.415,561.527,562.709S2658.426,3046.351,2359.02,3031.61z"/>
			</g>
			<g>
				<defs>
					<path id="SVGID_00000084509220945795610380000012367734193869072557_" d="M1354.309,2167.823
						c0-380.42,353.263-688.812,789.036-688.812c435.771,0,789.034,308.392,789.034,688.812c0,93.086-21.197,181.84-59.534,262.837
						c6.409,30.457,10.295,61.681,11.376,93.451c10.087,296.19-225.797,524.395-525.201,509.807
						c-160.359-7.813-306.293-83.788-408.373-198.012C1608.027,2760.83,1354.309,2490.208,1354.309,2167.823z"/>
				</defs>
				<clipPath id="SVGID_00000118396423036774662520000002077934698639500222_">
					<use xlink:href="#SVGID_00000084509220945795610380000012367734193869072557_"  style="overflow:visible;"/>
				</clipPath>
				
					<linearGradient id="SVGID_00000083076362128359139250000000366499932479854003_" gradientUnits="userSpaceOnUse" x1="6394.3853" y1="2802.2788" x2="6325.3481" y2="2913.9561" gradientTransform="matrix(0.9299 -0.3678 0.3678 0.9299 -5018.8794 1300.4259)">
					<stop  offset="0" style="stop-color:#FFC444"/>
					<stop  offset="0.9964" style="stop-color:#F36F56"/>
				</linearGradient>
				
					<path style="clip-path:url(#SVGID_00000118396423036774662520000002077934698639500222_);fill:url(#SVGID_00000083076362128359139250000000366499932479854003_);" d="
					M1996.485,1661.716c2.524-12.679,5.915-38.879-4.741-68.045c-20.706-56.676-79.612-83.974-84.212-79.25
					c-2.477,2.545,7.846,17.469,12.866,23.904c10.455,13.403,15.828,12.972,18.18,20.095c4.845,14.665-15.634,23.406-19.028,46.75
					c-2.443,16.811,4.647,36.578,19.247,48.666C1963.017,1673.889,1995.138,1662.229,1996.485,1661.716z"/>
				
					<linearGradient id="SVGID_00000150782486096228227420000004925622475083954834_" gradientUnits="userSpaceOnUse" x1="4967.0591" y1="1645.408" x2="5040.0698" y2="1981.6405" gradientTransform="matrix(1 0 0 1 -2743.7578 0)">
					<stop  offset="0.0036" style="stop-color:#E38DDD"/>
					<stop  offset="1" style="stop-color:#9571F6"/>
				</linearGradient>
				
					<path style="clip-path:url(#SVGID_00000118396423036774662520000002077934698639500222_);fill:url(#SVGID_00000150782486096228227420000004925622475083954834_);" d="
					M1958.124,1677.154l52.847-37.072c0,0,169.127,250.339,538.022,252.26l-59.561,268.986
					C2489.431,2161.328,2112.731,2188.227,1958.124,1677.154z"/>
				<g style="clip-path:url(#SVGID_00000118396423036774662520000002077934698639500222_);">
					<g>
						<path style="fill:#26264F;" d="M1686.061,2601.724l-186.598-437.1c-9.322-21.838,3.196-46.821,26.271-52.425l341.805-83.01
							c18.473-4.485,37.449,5.21,44.639,22.808l171.629,420.107c8.546,20.92-2.719,44.663-24.328,51.275l-326.836,100.002
							C1713.862,2629.127,1693.772,2619.787,1686.061,2601.724z"/>
						
							<linearGradient id="SVGID_00000167356449011163949970000009447302136822997412_" gradientUnits="userSpaceOnUse" x1="1624.4708" y1="2687.1414" x2="2511.4773" y2="732.6354">
							<stop  offset="0" style="stop-color:#FFC444"/>
							<stop  offset="0.9964" style="stop-color:#F36F56"/>
						</linearGradient>
						<path style="fill:url(#SVGID_00000167356449011163949970000009447302136822997412_);" d="M1694.506,2580.701l-174.296-408.281
							c-8.707-20.399,2.987-43.735,24.54-48.969l319.27-77.538c17.255-4.189,34.979,4.866,41.694,21.304l160.314,392.409
							c7.983,19.541-2.539,41.718-22.724,47.894l-305.288,93.409C1720.475,2606.297,1701.709,2597.573,1694.506,2580.701z"/>
						
							<linearGradient id="SVGID_00000005988251585409688790000011227291495470206360_" gradientUnits="userSpaceOnUse" x1="1554.3398" y1="2267.4138" x2="3936.9995" y2="3202.665">
							<stop  offset="0" style="stop-color:#24ABB5"/>
							<stop  offset="0.5828" style="stop-color:#40CF9F"/>
							<stop  offset="1" style="stop-color:#3FCEA0"/>
						</linearGradient>
						<path style="opacity:0.4;fill:url(#SVGID_00000005988251585409688790000011227291495470206360_);" d="M1910.205,2469.773
							c-41.258-99.707-182.224-99.707-233.796-185.662c-44.696-68.764,55.011-130.651,72.202-209.729
							c0.027-0.153,0.049-0.307,0.075-0.46l-203.935,49.528c-21.554,5.233-33.247,28.57-24.541,48.969l174.296,408.282
							c7.204,16.87,25.969,25.595,43.511,20.228l174.641-53.434C1911.212,2522.797,1917.405,2493.775,1910.205,2469.773z"/>
					</g>
					
						<linearGradient id="SVGID_00000136382444171742065170000011238525514908897460_" gradientUnits="userSpaceOnUse" x1="3252.1292" y1="2303.3108" x2="3200.623" y2="2538.4463" gradientTransform="matrix(1 0 0 1 -1659.9829 0)">
						<stop  offset="0" style="stop-color:#FFC444"/>
						<stop  offset="0.9964" style="stop-color:#F36F56"/>
					</linearGradient>
					<path style="fill:url(#SVGID_00000136382444171742065170000011238525514908897460_);" d="M1586.904,2460.679l-5.599-51.505
						l-29.677-56.573c-4.042-7.704-6.153-16.274-6.153-24.974v-56.176l35.829,82.858c0,0,23.514-21.274,32.472-25.754
						c8.958-4.478,7.837,13.437,1.119,20.156c-6.718,6.718,3.359,61.582-3.359,67.181l2.24,33.591L1586.904,2460.679z"/>
					
						<linearGradient id="SVGID_00000000943007492481529050000012488982288430929080_" gradientUnits="userSpaceOnUse" x1="-2878.1101" y1="1939.2843" x2="-3555.9883" y2="3956.5156" gradientTransform="matrix(-1 0 0 1 -684.5794 0)">
						<stop  offset="0.0036" style="stop-color:#E38DDD"/>
						<stop  offset="1" style="stop-color:#9571F6"/>
					</linearGradient>
					<path style="fill:url(#SVGID_00000000943007492481529050000012488982288430929080_);" d="M1871.306,2132.609
						c27.864-68.136,87.673-107.323,118.688-127.645c73.383-48.081,120.362-39.303,288.881-64.943
						c224.587-34.171,251.47-66.549,326.949-40.309c99.151,34.469,150.94,124.471,174.672,165.714
						c119.647,207.928-20.239,313.611,15.676,727.801c14.667,169.155,52.274,316.154-38.07,403.088
						c-19.023,18.305-40.3,27.879-82.857,47.028c-168.774,75.94-320.094,62.849-412.047,53.745
						c-101.183-10.018-152.322-15.757-179.151-51.506c-42.856-57.105,1.26-129.682,8.957-255.29
						c5.527-90.179-14.977-161.639-55.985-304.556C1941.687,2353.483,1817.921,2263.151,1871.306,2132.609z"/>
					<g>
						<g>
							
								<linearGradient id="SVGID_00000073702941493331036370000014721548293622730123_" gradientUnits="userSpaceOnUse" x1="7052.9404" y1="799.1349" x2="7424.5254" y2="1266.6357" gradientTransform="matrix(0.9663 0.2576 -0.2576 0.9663 -4404.3237 -923.8408)">
								<stop  offset="0" style="stop-color:#FFC444"/>
								<stop  offset="0.9964" style="stop-color:#F36F56"/>
							</linearGradient>
							<path style="fill:url(#SVGID_00000073702941493331036370000014721548293622730123_);" d="M2247.227,1817.458
								c-10.224-36.427,7.652-70.161,11.592-77.43c16.496-30.431,20.721-34.589,28.592-39.86l10.94-6.749
								c0,0,0.634-0.254,1.301-0.492c7.021-2.498,30.95-3.225,35.797-2.19c15.486,3.307,31.975,66.396,27.27,155.59
								c0.642,3.398,1.261,6.826,1.86,10.284c2.439,14.085,4.377,27.892,5.874,41.391c1.433,12.912,19.742,12.616,32.708,11.788
								c52.625-3.358,78.378,1.12,80.618,8.958c4.196,14.688-58.224,62.703-135.301,73.505
								c-103.441,0.769-187.587-10.245-178.543-26.534c4.016-7.231,84.164-28.174,106.703-48.931
								c20.639-19.008,18.957-38.63,20.655-52.678C2291.036,1860.863,2254.753,1844.294,2247.227,1817.458z"/>
							
								<linearGradient id="SVGID_00000021806383958894130440000017329942226224095636_" gradientUnits="userSpaceOnUse" x1="2233.4893" y1="1490.7671" x2="2458.8557" y2="1948.5991">
								<stop  offset="0" style="stop-color:#444B8C"/>
								<stop  offset="0.9964" style="stop-color:#26264F"/>
							</linearGradient>
							<path style="fill:url(#SVGID_00000021806383958894130440000017329942226224095636_);" d="M2266.253,1668.083
								c0.093,27.632,13.112,57.144,19.746,61.885c0.855,0.613,5.677,4.421,10.008,10.933c0.59,0.885,1.111,1.923,1.575,3.266
								c6.053,17.413-21.634,37.904-16.29,45.703c3.877,5.655,22.693-1.908,24.932,2.977c2.108,4.595-13.531,14.114-11.136,19.619
								c1.806,4.158,11.431,0.354,17.501,6.721c3.025,3.172,2.137,5.685,5.342,15.379c1.813,5.482,4.347,11.481,6.313,14.818
								c9.551,16.225,36.598,22.152,41.803,15.659c1.447-1.81,0.204-3.33,1.684-9.403c0,0,1.371-5.628,5.287-12.134
								c5.595-9.297,19.1-15.946,32.729-25.759c25.236-18.173,32.096-33.664,34.154-38.897c0.732-1.864,1.188-3.272,1.516-4.286
								c6.563-20.367,6.592-50.285-2.565-68.683c-15.338-30.819-49.942-16.187-78.265-46.725
								c-32.678-35.231-13.216-83.391-30.949-88.709C2310.092,1564.583,2266.085,1616.989,2266.253,1668.083z"/>
							
								<linearGradient id="SVGID_00000145756862507215148800000006204828318502700170_" gradientUnits="userSpaceOnUse" x1="7070.7256" y1="775.6042" x2="7485.603" y2="1297.5728" gradientTransform="matrix(0.9663 0.2576 -0.2576 0.9663 -4404.3237 -923.8408)">
								<stop  offset="0" style="stop-color:#FFC444"/>
								<stop  offset="0.9964" style="stop-color:#F36F56"/>
							</linearGradient>
							<path style="fill:url(#SVGID_00000145756862507215148800000006204828318502700170_);" d="M2291.225,1783.376
								c6.774-9.307,18.674-0.562,18.743,11.478c0.071,12.039-11.596,24.558-22.914,22.181
								C2275.735,1814.657,2282.111,1795.901,2291.225,1783.376z"/>
						</g>
						
							<linearGradient id="SVGID_00000165918550777851311240000011350566633684835505_" gradientUnits="userSpaceOnUse" x1="2134.8313" y1="1539.3315" x2="2360.198" y2="1997.1637">
							<stop  offset="0" style="stop-color:#444B8C"/>
							<stop  offset="0.9964" style="stop-color:#26264F"/>
						</linearGradient>
						<path style="fill:url(#SVGID_00000165918550777851311240000011350566633684835505_);" d="M2296.718,1763.232l-15.712,20.439
							c0,0-16.938,25.042-26.828,11.324c-8.078-11.209-10.172-10.959-10.667-10.49c-0.094,0.089-0.119,0.224-0.142,0.217
							c-0.141-0.038,1.185-5.579,2.377-10.451c-4.182,6.004-9.947,15.744-13.438,28.849c-3.392,12.729-7.026,26.357,0.156,39.45
							c0.415,0.755,8.326,14.69,23.099,18.061c0,0,5.809,1.326,30.354-2.989c0,0-26.828-19.468-27.239-24.093
							c-1.112-12.575,16.329-19.372,29.279-45.152C2292.951,1778.454,2295.412,1769.438,2296.718,1763.232z"/>
					</g>
					
						<linearGradient id="SVGID_00000013151299140742413900000009346792815816502966_" gradientUnits="userSpaceOnUse" x1="3497.6309" y1="2513.376" x2="4093.3074" y2="3082.1794" gradientTransform="matrix(1 0 0 1 -1659.9829 0)">
						<stop  offset="0.0036" style="stop-color:#E38DDD"/>
						<stop  offset="1" style="stop-color:#9571F6"/>
					</linearGradient>
					<path style="opacity:0.3;fill:url(#SVGID_00000013151299140742413900000009346792815816502966_);" d="M2350.535,3178.402
						c-29.768-59.271,43.175-138.059-4.48-228.417c-40.472-76.743-113.995-59.55-147.799-129.884
						c-40.831-84.952,47.967-148.444,44.787-277.684c-3.801-154.502-136.742-309.162-214.98-295.598
						c-50.62,8.775-57.123,84.293-92.739,166.969c31.516,69.107,68.336,155.684,101.696,271.951
						c41.008,142.917,61.512,214.376,55.985,304.556c-7.698,125.608-51.813,198.186-8.957,255.29
						c26.829,35.75,77.968,41.488,179.151,51.506c91.952,9.104,243.273,22.195,412.047-53.745
						c21.363-9.613,37.356-16.813,50.401-23.915C2461.969,3259.028,2374.145,3225.416,2350.535,3178.402z"/>
					
						<linearGradient id="SVGID_00000088125624384961272790000003282949173482390195_" gradientUnits="userSpaceOnUse" x1="-2440.1816" y1="2086.448" x2="-3118.0596" y2="4103.6792" gradientTransform="matrix(-1 0 0 1 -684.5794 0)">
						<stop  offset="0.0036" style="stop-color:#E38DDD"/>
						<stop  offset="1" style="stop-color:#9571F6"/>
					</linearGradient>
					<path style="fill:url(#SVGID_00000088125624384961272790000003282949173482390195_);" d="M1576.827,2450.602
						c16.422-7.092,32.844-14.184,49.266-21.274c27.755,28.386,63.156,55.989,92.935,47.027
						c44.389-13.358,33.29-95.018,87.336-238.494c61.237-162.565,130.716-204.349,165.715-219.459
						c19.549-8.44,33.045-14.043,49.266-10.078c74.644,18.246,99.322,212.759,78.379,358.301
						c-11.8,82.002-34.938,242.791-166.834,319.113c-18.737,10.842-121.87,70.521-223.939,23.513
						C1621.755,2669.093,1567.874,2566.059,1576.827,2450.602z"/>
				</g>
			</g>
		</g>
		<g>
			<g>
				<g>
					
						<linearGradient id="SVGID_00000098928411659419120230000013752759957417419175_" gradientUnits="userSpaceOnUse" x1="1019.5026" y1="2315.4194" x2="837.4173" y2="2373.856">
						<stop  offset="0" style="stop-color:#FCB148"/>
						<stop  offset="0.0521" style="stop-color:#FDBA46"/>
						<stop  offset="0.1424" style="stop-color:#FFC244"/>
						<stop  offset="0.3183" style="stop-color:#FFC444"/>
						<stop  offset="0.4849" style="stop-color:#FDB946"/>
						<stop  offset="0.7754" style="stop-color:#F99C4D"/>
						<stop  offset="0.8658" style="stop-color:#F8924F"/>
						<stop  offset="1" style="stop-color:#F8924F"/>
					</linearGradient>
					<path style="fill:url(#SVGID_00000098928411659419120230000013752759957417419175_);" d="M1229.121,2308.812
						c0,84.472-66.052,150.921-150.473,148.329c-87.858-2.698-161.749-78.576-161.749-169.378
						c0-90.801,73.891-156.717,161.749-147.568C1163.07,2148.985,1229.121,2224.341,1229.121,2308.812z"/>
					
						<linearGradient id="SVGID_00000037671649592908852100000017645465567627111323_" gradientUnits="userSpaceOnUse" x1="1166.7991" y1="2134.1716" x2="1004.2444" y2="2492.7974">
						<stop  offset="0" style="stop-color:#FFDB44"/>
						<stop  offset="1" style="stop-color:#FEEF06"/>
					</linearGradient>
					<path style="fill:url(#SVGID_00000037671649592908852100000017645465567627111323_);" d="M1251.934,2301.529
						c0,84.472-66.052,150.921-150.473,148.329c-87.858-2.698-161.749-78.576-161.749-169.378
						c0-90.802,73.891-156.717,161.749-147.568C1185.882,2141.702,1251.934,2217.057,1251.934,2301.529z"/>
					
						<linearGradient id="SVGID_00000034057356047494149100000000475379793627215019_" gradientUnits="userSpaceOnUse" x1="1136.8971" y1="2512.8411" x2="1105.5317" y2="2341.4939">
						<stop  offset="0" style="stop-color:#FCB148"/>
						<stop  offset="0.0521" style="stop-color:#FDBA46"/>
						<stop  offset="0.1424" style="stop-color:#FFC244"/>
						<stop  offset="0.3183" style="stop-color:#FFC444"/>
						<stop  offset="0.4849" style="stop-color:#FDB946"/>
						<stop  offset="0.7754" style="stop-color:#F99C4D"/>
						<stop  offset="0.8658" style="stop-color:#F8924F"/>
						<stop  offset="1" style="stop-color:#F8924F"/>
					</linearGradient>
					<path style="fill:url(#SVGID_00000034057356047494149100000000475379793627215019_);" d="M1245.308,2301.082
						c0,80.752-63.199,144.168-143.847,141.556c-83.778-2.713-154.118-75.127-154.118-161.644
						c0-86.518,70.34-149.447,154.118-140.864C1182.108,2148.393,1245.308,2220.33,1245.308,2301.082z"/>
					
						<linearGradient id="SVGID_00000008121569963558687600000010349955491722849189_" gradientUnits="userSpaceOnUse" x1="1070.3969" y1="2235.4968" x2="1199.6571" y2="2509.8918">
						<stop  offset="0" style="stop-color:#FCB148"/>
						<stop  offset="0.0521" style="stop-color:#FDBA46"/>
						<stop  offset="0.1424" style="stop-color:#FFC244"/>
						<stop  offset="0.3183" style="stop-color:#FFC444"/>
						<stop  offset="0.4849" style="stop-color:#FDB946"/>
						<stop  offset="0.7754" style="stop-color:#F99C4D"/>
						<stop  offset="0.8658" style="stop-color:#F8924F"/>
						<stop  offset="1" style="stop-color:#F8924F"/>
					</linearGradient>
					<path style="fill:url(#SVGID_00000008121569963558687600000010349955491722849189_);" d="M1240.562,2300.762
						c0,78.088-61.153,139.337-139.101,136.72c-80.868-2.715-148.683-72.655-148.683-156.122s67.815-144.263,148.683-136.074
						C1179.409,2153.18,1240.562,2222.675,1240.562,2300.762z"/>
					<g>
						
							<linearGradient id="SVGID_00000105405080647083562100000004534371926285057943_" gradientUnits="userSpaceOnUse" x1="1065.2469" y1="2176.4504" x2="1130.2435" y2="2420.0461">
							<stop  offset="0" style="stop-color:#FFDB44"/>
							<stop  offset="1" style="stop-color:#FEEF06"/>
						</linearGradient>
						<path style="fill:url(#SVGID_00000105405080647083562100000004534371926285057943_);" d="M1100.662,2171.852
							L1100.662,2171.852c4.148,0.394,7.505,4.128,7.505,8.341v14.377c8.294,0.926,16.6,2.368,24.918,4.323
							c6.133,1.441,12.224,3.157,18.275,5.146c3.625,1.192,6.096,4.853,5.726,8.628l-1.766,18.029
							c-0.469,4.783-5.197,7.592-9.648,5.607c-3.986-1.777-8.072-3.3-12.26-4.567c-7.308-2.211-15.015-3.653-23.125-4.322
							l-2.12-0.175v41.174c21.638,6.054,37.529,14.198,47.799,24.442c10.22,10.195,15.312,22.9,15.312,38.153
							c0,16.495-5.63,29.703-16.934,39.664c-11.365,10.014-27.298,15.647-47.902,16.866v15.868c0,4.214-3.36,7.497-7.511,7.332
							l-0.133-0.005c-4.16-0.165-7.538-3.728-7.538-7.957v-15.654l-3.344-0.151c-9.659-0.436-18.911-1.421-27.751-2.959
							c-6.547-1.139-12.939-2.609-19.177-4.411c-3.772-1.09-6.362-4.683-6.016-8.544l2.078-23.175
							c0.449-5.01,5.482-7.925,10.246-6.046c5.553,2.19,11.175,4.036,16.866,5.536c8.868,2.339,17.857,3.839,26.965,4.505
							l0.134-45.801c-20.77-5.139-36.321-12.752-46.537-22.835c-10.264-10.131-15.415-23.095-15.415-38.858
							c0-16.313,5.585-28.905,16.711-37.742c11.07-8.792,26.808-13.167,47.111-13.156v-14.698
							C1093.131,2174.563,1096.506,2171.457,1100.662,2171.852z M1093.131,2226.814c-6.419,0.467-11.425,2.23-15.008,5.291
							c-3.589,3.066-5.385,7.188-5.385,12.36c0,4.9,1.662,8.996,4.982,12.283c3.315,3.283,8.456,5.904,15.411,7.862V2226.814z
							 M1106.443,2309.75v42.001c6.978,0.014,12.329-1.652,16.064-4.994c3.729-3.335,5.591-8.047,5.591-14.138
							c0-5.554-1.731-10.16-5.196-13.823C1119.432,2315.127,1113.95,2312.112,1106.443,2309.75z"/>
					</g>
					
						<linearGradient id="SVGID_00000114044829398557852770000018293849701280494744_" gradientUnits="userSpaceOnUse" x1="1032.3688" y1="2253.2542" x2="1161.3683" y2="2527.0957">
						<stop  offset="0" style="stop-color:#FCB148"/>
						<stop  offset="0.0521" style="stop-color:#FDBA46"/>
						<stop  offset="0.1424" style="stop-color:#FFC244"/>
						<stop  offset="0.3183" style="stop-color:#FFC444"/>
						<stop  offset="0.4849" style="stop-color:#FDB946"/>
						<stop  offset="0.7754" style="stop-color:#F99C4D"/>
						<stop  offset="0.8658" style="stop-color:#F8924F"/>
						<stop  offset="1" style="stop-color:#F8924F"/>
					</linearGradient>
					<path style="opacity:0.3;fill:url(#SVGID_00000114044829398557852770000018293849701280494744_);" d="M1076.289,2319.885
						c4.7-46.418,47.359-66.068,41.792-108.765c-3.431-26.316-23.377-48.494-45.628-65.81
						c-67.489,7.078-119.676,62.96-119.676,136.051c0,83.467,67.815,153.406,148.683,156.122c7.852,0.263,15.52-0.145,22.977-1.122
						C1092.321,2404.402,1072.251,2359.763,1076.289,2319.885z"/>
				</g>
				<g>
					
						<linearGradient id="SVGID_00000103247996313452716420000011652556411264071843_" gradientUnits="userSpaceOnUse" x1="673.837" y1="1893.3934" x2="380.9762" y2="1987.3813">
						<stop  offset="0" style="stop-color:#FCB148"/>
						<stop  offset="0.0521" style="stop-color:#FDBA46"/>
						<stop  offset="0.1424" style="stop-color:#FFC244"/>
						<stop  offset="0.3183" style="stop-color:#FFC444"/>
						<stop  offset="0.4849" style="stop-color:#FDB946"/>
						<stop  offset="0.7754" style="stop-color:#F99C4D"/>
						<stop  offset="0.8658" style="stop-color:#F8924F"/>
						<stop  offset="1" style="stop-color:#F8924F"/>
					</linearGradient>
					<path style="fill:url(#SVGID_00000103247996313452716420000011652556411264071843_);" d="M1010.982,1882.767
						c0,135.862-106.236,242.738-242.017,238.568c-141.308-4.339-260.153-126.38-260.153-272.423
						c0-146.042,118.845-252.059,260.153-237.345C904.747,1625.706,1010.982,1746.905,1010.982,1882.767z"/>
					
						<linearGradient id="SVGID_00000083800331317202132620000009058053699925031813_" gradientUnits="userSpaceOnUse" x1="910.7444" y1="1601.8798" x2="649.2963" y2="2178.6833">
						<stop  offset="0" style="stop-color:#FFDB44"/>
						<stop  offset="1" style="stop-color:#FEEF06"/>
					</linearGradient>
					<path style="fill:url(#SVGID_00000083800331317202132620000009058053699925031813_);" d="M1047.673,1871.052
						c0,135.862-106.236,242.737-242.017,238.568c-141.308-4.339-260.153-126.38-260.153-272.422
						c0-146.043,118.845-252.059,260.153-237.345C941.437,1613.991,1047.673,1735.191,1047.673,1871.052z"/>
					
						<linearGradient id="SVGID_00000159470525223395553360000005327220579439670673_" gradientUnits="userSpaceOnUse" x1="862.6509" y1="2210.9211" x2="812.2039" y2="1935.3311">
						<stop  offset="0" style="stop-color:#FCB148"/>
						<stop  offset="0.0521" style="stop-color:#FDBA46"/>
						<stop  offset="0.1424" style="stop-color:#FFC244"/>
						<stop  offset="0.3183" style="stop-color:#FFC444"/>
						<stop  offset="0.4849" style="stop-color:#FDB946"/>
						<stop  offset="0.7754" style="stop-color:#F99C4D"/>
						<stop  offset="0.8658" style="stop-color:#F8924F"/>
						<stop  offset="1" style="stop-color:#F8924F"/>
					</linearGradient>
					<path style="fill:url(#SVGID_00000159470525223395553360000005327220579439670673_);" d="M1037.016,1870.334
						c0,129.879-101.648,231.875-231.359,227.676c-134.746-4.363-247.879-120.832-247.879-259.984s113.133-240.367,247.879-226.561
						C935.367,1624.753,1037.016,1740.455,1037.016,1870.334z"/>
					
						<linearGradient id="SVGID_00000146483541861284244340000006628323301268479886_" gradientUnits="userSpaceOnUse" x1="755.6937" y1="1764.8483" x2="963.5925" y2="2206.1775">
						<stop  offset="0" style="stop-color:#FCB148"/>
						<stop  offset="0.0521" style="stop-color:#FDBA46"/>
						<stop  offset="0.1424" style="stop-color:#FFC244"/>
						<stop  offset="0.3183" style="stop-color:#FFC444"/>
						<stop  offset="0.4849" style="stop-color:#FDB946"/>
						<stop  offset="0.7754" style="stop-color:#F99C4D"/>
						<stop  offset="0.8658" style="stop-color:#F8924F"/>
						<stop  offset="1" style="stop-color:#F8924F"/>
					</linearGradient>
					<path style="fill:url(#SVGID_00000146483541861284244340000006628323301268479886_);" d="M1029.382,1869.819
						c0,125.594-98.357,224.106-223.726,219.897c-130.066-4.367-239.138-116.856-239.138-251.102s109.071-232.028,239.138-218.858
						C931.026,1632.452,1029.382,1744.225,1029.382,1869.819z"/>
					<g>
						
							<linearGradient id="SVGID_00000019674811605035401050000007486833838664727214_" gradientUnits="userSpaceOnUse" x1="747.4109" y1="1669.8799" x2="851.9495" y2="2061.6721">
							<stop  offset="0" style="stop-color:#FFDB44"/>
							<stop  offset="1" style="stop-color:#FEEF06"/>
						</linearGradient>
						<path style="fill:url(#SVGID_00000019674811605035401050000007486833838664727214_);" d="M804.372,1662.484L804.372,1662.484
							c6.672,0.634,12.071,6.64,12.071,13.416v23.124c13.34,1.489,26.699,3.809,40.077,6.953c9.864,2.318,19.661,5.078,29.393,8.277
							c5.831,1.917,9.805,7.804,9.21,13.877l-2.84,28.997c-0.754,7.693-8.358,12.211-15.518,9.019
							c-6.41-2.859-12.982-5.307-19.719-7.346c-11.754-3.556-24.149-5.875-37.193-6.95l-3.411-0.281v66.224
							c34.802,9.737,60.361,22.836,76.878,39.312c16.438,16.397,24.628,36.832,24.628,61.364c0,26.53-9.055,47.773-27.236,63.795
							c-18.278,16.107-43.905,25.166-77.044,27.127v25.522c0,6.778-5.404,12.058-12.081,11.793l-0.214-0.008
							c-6.69-0.266-12.124-5.996-12.124-12.798v-25.177l-5.378-0.243c-15.535-0.701-30.416-2.286-44.634-4.759
							c-10.529-1.832-20.811-4.196-30.844-7.094c-6.068-1.753-10.233-7.533-9.676-13.742l3.341-37.274
							c0.722-8.058,8.816-12.747,16.479-9.724c8.931,3.523,17.974,6.491,27.127,8.905c14.264,3.761,28.721,6.174,43.37,7.246
							l0.215-73.665c-33.406-8.266-58.417-20.51-74.849-36.727c-16.509-16.294-24.792-37.146-24.792-62.499
							c0-26.237,8.982-46.49,26.878-60.703c17.805-14.142,43.117-21.177,75.771-21.159v-23.641
							C792.259,1666.844,797.687,1661.848,804.372,1662.484z M792.259,1750.883c-10.324,0.751-18.375,3.587-24.138,8.51
							c-5.772,4.932-8.661,11.56-8.661,19.879c0,7.881,2.673,14.468,8.012,19.756c5.331,5.28,13.601,9.495,24.787,12.645V1750.883z
							 M813.67,1884.275v67.553c11.223,0.022,19.83-2.657,25.838-8.031c5.998-5.365,8.992-12.943,8.992-22.74
							c0-8.933-2.783-16.342-8.357-22.233C834.56,1892.922,825.744,1888.074,813.67,1884.275z"/>
					</g>
					
						<linearGradient id="SVGID_00000056407972738142349730000013879902912376702123_" gradientUnits="userSpaceOnUse" x1="694.5306" y1="1793.4088" x2="902.0098" y2="2233.8477">
						<stop  offset="0" style="stop-color:#FCB148"/>
						<stop  offset="0.0521" style="stop-color:#FDBA46"/>
						<stop  offset="0.1424" style="stop-color:#FFC244"/>
						<stop  offset="0.3183" style="stop-color:#FFC444"/>
						<stop  offset="0.4849" style="stop-color:#FDB946"/>
						<stop  offset="0.7754" style="stop-color:#F99C4D"/>
						<stop  offset="0.8658" style="stop-color:#F8924F"/>
						<stop  offset="1" style="stop-color:#F8924F"/>
					</linearGradient>
					<path style="opacity:0.3;fill:url(#SVGID_00000056407972738142349730000013879902912376702123_);" d="M765.17,1900.575
						c7.559-74.657,76.172-106.261,67.218-174.934c-5.519-42.326-37.599-77.996-73.386-105.846
						c-108.547,11.384-192.483,101.264-192.483,218.82c0,134.246,109.071,246.735,239.137,251.102
						c12.629,0.424,24.962-0.232,36.955-1.804C790.956,2036.511,758.676,1964.714,765.17,1900.575z"/>
				</g>
			</g>
			<g>
				
					<linearGradient id="SVGID_00000141422208723900597090000005246880214676816319_" gradientUnits="userSpaceOnUse" x1="1278.3389" y1="548.6862" x2="762.4223" y2="1268.1296">
					<stop  offset="0" style="stop-color:#FF9085"/>
					<stop  offset="1" style="stop-color:#FB6FBB"/>
				</linearGradient>
				<path style="fill:url(#SVGID_00000141422208723900597090000005246880214676816319_);" d="M1262.675,1253.968l-721.496-7.181
					c-16.315-0.162-29.558-13.159-29.558-29.03V943.336c0-15.87,13.243-28.42,29.558-28.031l628.102,14.961
					c15.449,0.368,27.957,13.163,27.957,28.578v235.858L1262.675,1253.968z"/>
				<polygon style="opacity:0.67;fill:#FFFFFF;" points="1095.894,1029.439 618.09,1020.124 618.09,987.225 1095.894,997.2 				"/>
				<polygon style="opacity:0.67;fill:#FFFFFF;" points="1095.894,1093.917 618.09,1085.921 618.09,1053.022 1095.894,1061.678 				
					"/>
				<polygon style="opacity:0.67;fill:#FFFFFF;" points="1095.894,1158.395 618.09,1151.718 618.09,1118.819 1095.894,1126.156 				
					"/>
			</g>
			<g>
				
					<linearGradient id="SVGID_00000060736137544975931170000006268661277694307001_" gradientUnits="userSpaceOnUse" x1="1270.1262" y1="-1533.813" x2="854.8524" y2="-954.7154" gradientTransform="matrix(1 0 0 -1 0 1625.2101)">
					<stop  offset="0" style="stop-color:#FF9085"/>
					<stop  offset="1" style="stop-color:#FB6FBB"/>
				</linearGradient>
				<path style="fill:url(#SVGID_00000060736137544975931170000006268661277694307001_);" d="M1257.518,2591.325l-580.749,5.78
					c-13.133,0.131-23.792,10.592-23.792,23.366v220.888c0,12.774,10.659,22.876,23.792,22.563l505.575-12.042
					c12.435-0.296,22.503-10.595,22.503-23.003V2639.03L1257.518,2591.325z"/>
				<polygon style="opacity:0.67;fill:#FFFFFF;" points="1123.271,2772.053 738.676,2779.552 738.676,2806.032 1123.271,2798.003 
									"/>
				<polygon style="opacity:0.67;fill:#FFFFFF;" points="1123.271,2720.153 738.676,2726.59 738.676,2753.071 1123.271,2746.103 
									"/>
				<polygon style="opacity:0.67;fill:#FFFFFF;" points="1123.271,2668.254 738.676,2673.628 738.676,2700.109 1123.271,2694.204 
									"/>
			</g>
		</g>
		<g>
			<g>
				
					<linearGradient id="SVGID_00000124862791222426552000000007772384257801607598_" gradientUnits="userSpaceOnUse" x1="2207.7458" y1="833.6948" x2="2524.5022" y2="1226.7559">
					<stop  offset="0" style="stop-color:#444B8C"/>
					<stop  offset="0.9964" style="stop-color:#26264F"/>
				</linearGradient>
				<path style="fill:url(#SVGID_00000124862791222426552000000007772384257801607598_);" d="M2841.782,1088.321
					c0-18.697-15.273-34.511-34.1-35.331l-488.569-21.25c-21.174-0.922-38.819,14.501-38.819,34.45v389.971
					c0,19.949,17.587,35.981,38.761,35.808l11.441-0.125l0.538-0.854l476.292-9.416c18.827-0.153,34.455-9.064,34.455-27.761
					V1088.321z M2414.445,1120.036c-18.194-0.618-33-15.164-33-32.487c0-17.322,14.805-30.757,33-30.01
					c18.119,0.744,32.755,15.284,32.755,32.477C2447.2,1107.21,2432.564,1120.651,2414.445,1120.036z M2570.172,1125.327
					c-17.556-0.597-31.842-14.876-31.842-31.891s14.286-30.222,31.842-29.501c17.485,0.718,31.609,14.991,31.609,31.882
					C2601.781,1112.708,2587.657,1125.921,2570.172,1125.327z M2720.489,1130.435c-16.951-0.576-30.743-14.598-30.743-31.316
					c0-16.718,13.792-29.705,30.743-29.009c16.883,0.693,30.522,14.71,30.522,31.308S2737.372,1131.009,2720.489,1130.435z"/>
				
					<linearGradient id="SVGID_00000051353425830789541520000002064467829421621436_" gradientUnits="userSpaceOnUse" x1="2293.0554" y1="1094.1084" x2="2851.9912" y2="1094.1084">
					<stop  offset="0" style="stop-color:#444B8C"/>
					<stop  offset="0.9964" style="stop-color:#26264F"/>
				</linearGradient>
				<path style="fill:url(#SVGID_00000051353425830789541520000002064467829421621436_);" d="M2851.991,1156.002v-67.685
					c0-18.67-14.839-34.061-33.615-34.879l-486.851-21.181c-8.893-0.387-17.2,1.956-23.73,6.508
					c-8.919,6.209-14.74,16.03-14.74,27.521v89.716H2851.991z M2731.283,1070.553c16.837,0.692,30.452,14.683,30.452,31.275
					c0,16.574-13.615,29.544-30.452,28.972c-16.905-0.574-30.673-14.572-30.673-31.266
					C2700.61,1082.823,2714.378,1069.859,2731.283,1070.553z M2581.351,1064.395c17.436,0.716,31.534,14.963,31.534,31.847
					c0,16.865-14.098,30.055-31.534,29.463c-17.508-0.595-31.768-14.848-31.768-31.838
					C2549.583,1076.859,2563.844,1063.676,2581.351,1064.395z M2426.029,1058.015c18.069,0.742,32.677,15.255,32.677,32.441
					c0,17.167-14.608,30.584-32.677,29.97c-18.142-0.617-32.921-15.136-32.921-32.432
					C2393.108,1070.68,2407.887,1057.27,2426.029,1058.015z"/>
				<path style="fill:#FFFFFF;" d="M2293.055,1135.62v320.433c0,19.918,16.577,35.963,37.692,35.791l487.352-3.953
					c18.782-0.153,33.891-15.396,33.891-34.074v-300.482L2293.055,1135.62z"/>
				<g>
					<path style="fill:#BFC8D6;" d="M2655.47,1199.672c0-4.442-3.249-8.12-7.8-8.241l-48.216-1.252
						c-4.605-0.122-10.343,3.381-10.343,7.855v45.161c0,4.474,5.959,8.208,10.564,8.298l46.882,0.899
						c4.551,0.089,8.911-3.441,8.911-7.883V1199.672z"/>
					<path style="fill:#BFC8D6;" d="M2739.694,1201.826c0-4.399-3.742-8.052-8.206-8.17l-45.094-1.177
						c-4.515-0.12-7.953,3.402-7.953,7.832v44.716c0,4.43,3.377,8.071,7.893,8.159l45.296,0.866
						c4.463,0.087,8.065-3.425,8.065-7.823V1201.826z"/>
					<path style="fill:#BFC8D6;" d="M2823.917,1203.994c0-4.355-3.882-7.981-8.257-8.097l-44.701-1.203
						c-4.426-0.118-8.295,3.319-8.295,7.705v44.273c0,4.386,3.701,8.035,8.127,8.122l44.812,0.88
						c4.375,0.085,8.314-3.361,8.314-7.716V1203.994z"/>
					<path style="fill:#BFC8D6;" d="M2655.47,1281.682c0-4.442-3.249-8.088-7.8-8.166l-48.216-0.812
						c-4.605-0.078-10.343,3.459-10.343,7.933v45.161c0,4.474,5.959,8.173,10.564,8.218l46.882,0.461
						c4.551,0.045,8.911-3.516,8.911-7.958V1281.682z"/>
					
						<linearGradient id="SVGID_00000030452209840002066340000004084087556924073607_" gradientUnits="userSpaceOnUse" x1="2678.4402" y1="1304.7673" x2="2739.6936" y2="1304.7673">
						<stop  offset="0" style="stop-color:#FF9085"/>
						<stop  offset="1" style="stop-color:#FB6FBB"/>
					</linearGradient>
					<path style="fill:url(#SVGID_00000030452209840002066340000004084087556924073607_);" d="M2739.694,1283.042
						c0-4.399-3.742-8.022-8.206-8.098l-45.094-0.748c-4.515-0.077-7.953,3.474-7.953,7.904v44.716c0,4.43,3.377,8.04,7.893,8.084
						l45.296,0.439c4.463,0.044,8.065-3.495,8.065-7.894V1283.042z"/>
					<path style="fill:#BFC8D6;" d="M2823.917,1284.404c0-4.355-3.882-7.95-8.257-8.024l-44.701-0.782
						c-4.426-0.075-8.295,3.393-8.295,7.779v44.273c0,4.386,3.701,8.003,8.127,8.047l44.812,0.458
						c4.375,0.043,8.314-3.433,8.314-7.789V1284.404z"/>
					<path style="fill:#BFC8D6;" d="M2392.592,1277.521c0-4.578-4.256-8.383-9.092-8.466l-48.755-0.864
						c-4.895-0.083-8.51,3.56-8.51,8.172v46.564c0,4.613,3.442,8.408,8.338,8.456l49.192,0.519c4.836,0.048,8.828-3.592,8.828-8.17
						V1277.521z"/>
					<path style="fill:#BFC8D6;" d="M2481.92,1278.891c0-4.532-3.455-8.254-8.193-8.334l-48.796-0.83
						c-4.795-0.082-9.369,3.541-9.369,8.107v46.084c0,4.565,4.768,8.325,9.563,8.372l48.165,0.472
						c4.738,0.047,8.63-3.593,8.63-8.125V1278.891z"/>
					<path style="fill:#BFC8D6;" d="M2568.695,1280.38c0-4.487-3.527-8.221-8.171-8.3l-48.416-0.844
						c-4.7-0.08-9.77,3.477-9.77,7.997v45.626c0,4.52,5.188,8.246,9.888,8.293l47.612,0.513c4.644,0.046,8.857-3.508,8.857-7.995
						V1280.38z"/>
					<path style="fill:#BFC8D6;" d="M2655.47,1363.692c0-4.442-3.249-8.057-7.8-8.091l-48.216-0.372
						c-4.605-0.034-10.343,3.536-10.343,8.01v45.161c0,4.474,5.959,8.137,10.564,8.139l46.882,0.022
						c4.551,0.001,8.911-3.591,8.911-8.032V1363.692z"/>
					<path style="fill:#BFC8D6;" d="M2739.694,1364.259c0-4.399-3.742-7.992-8.206-8.025l-45.094-0.321
						c-4.515-0.034-7.953,3.547-7.953,7.977v44.716c0,4.43,3.377,8.008,7.893,8.01l45.296,0.012
						c4.463,0.001,8.065-3.566,8.065-7.965V1364.259z"/>
					<path style="fill:#BFC8D6;" d="M2392.592,1362.046c0-4.578-4.256-8.342-9.092-8.378l-48.755-0.394
						c-4.895-0.036-8.51,3.645-8.51,8.258v46.564c0,4.613,3.442,8.372,8.338,8.373l49.192,0.045
						c4.836,0.002,8.828-3.679,8.828-8.257V1362.046z"/>
					<path style="fill:#BFC8D6;" d="M2481.92,1362.563c0-4.532-3.455-8.221-8.193-8.256l-48.796-0.37
						c-4.795-0.036-9.369,3.624-9.369,8.189v46.084c0,4.565,4.768,8.286,9.563,8.288l48.165,0.015
						c4.738,0.001,8.63-3.672,8.63-8.204V1362.563z"/>
					<path style="fill:#BFC8D6;" d="M2568.695,1363.22c0-4.487-3.527-8.186-8.171-8.221l-48.416-0.392
						c-4.7-0.035-9.77,3.56-9.77,8.08v45.626c0,4.52,5.188,8.208,9.888,8.209l47.612,0.062c4.644,0.002,8.857-3.588,8.857-8.075
						V1363.22z"/>
				</g>
				<path style="fill:#823672;" d="M2422.976,974.189c-30.522-1.544-55.779,23.303-58.222,59.527l25.78,1.122
					c2.103-21.644,16.124-37.663,32.442-36.881c17.636,0.844,32.48,21.339,32.48,44.872c0,23.532-14.844,42.8-32.48,42.13
					c-9.184-0.349-17.639-6.091-23.659-14.823c-3.489,4.804-9.503,15.859-3.81,29.578c8.206,5.396,17.561,8.621,27.469,8.971
					c31.891,1.126,57.666-27.882,57.666-64.771C2480.642,1007.024,2454.867,975.802,2422.976,974.189z"/>
				<path style="fill:#823672;" d="M2578.137,981.957c-29.465-1.49-53.843,22.943-56.201,58.532l24.884,1.083
					c2.03-21.266,15.564-37.016,31.318-36.262c17.026,0.815,31.359,20.942,31.359,44.065c0,23.123-14.333,42.066-31.359,41.419
					c-8.866-0.337-17.028-5.973-22.839-14.549c-3.368,4.722-9.174,15.588-3.677,29.062c7.922,5.297,16.952,8.46,26.517,8.797
					c30.79,1.087,55.678-27.434,55.678-63.683C2633.815,1014.173,2608.927,983.515,2578.137,981.957z"/>
				<path style="fill:#823672;" d="M2728.438,989.641c-28.437-1.439-51.962,22.584-54.238,57.546l24.013,1.045
					c1.959-20.893,15.021-36.377,30.225-35.649c16.434,0.787,30.269,20.549,30.269,43.268c0,22.718-13.835,41.339-30.269,40.714
					c-8.558-0.325-16.434-5.857-22.043-14.277c-3.25,4.641-8.853,15.319-3.549,28.553c7.645,5.198,16.361,8.3,25.592,8.626
					c29.719,1.049,53.745-26.989,53.745-62.605C2782.183,1021.246,2758.157,991.144,2728.438,989.641z"/>
				<path style="opacity:0.3;fill:#BFC8D6;" d="M2851.991,1441.529v12.295c0,18.67-14.839,33.928-33.615,34.081l-487.341,3.939
					c-21.107,0.172-37.979-15.873-37.979-35.783v-389.775c0-11.491,5.674-21.51,14.593-27.719
					c19.382,6.97,44.343,26.424,57.127,79.153c22.542,92.922,41.939,132.609,128.86,130.633
					c55.558-1.264,98.161,1.293,124.714,25.778c14.255,13.125,23.954,32.625,28.556,61.309
					c2.693,16.784,14.745,27.488,31.951,35.336c16.847,7.709,38.741,12.674,61.521,18.026
					C2782.2,1398.604,2829.021,1409.722,2851.991,1441.529z"/>
			</g>
			<g>
				<path style="fill:#FFFFFF;" d="M2700.031,1323.396c-0.458,0.035-0.919-0.071-1.315-0.331l-10.863-7.141
					c-1.009-0.663-1.234-2.071-0.503-3.143c0.731-1.073,2.14-1.404,3.147-0.741l9.23,6.078l26.317-31.134
					c0.826-0.977,2.229-1.139,3.132-0.36c0.903,0.779,0.966,2.202,0.14,3.18l-27.63,32.725
					C2701.247,1323.051,2700.641,1323.349,2700.031,1323.396z"/>
			</g>
		</g>
	</g>
</g>
</svg>
